<svg width="152" height="45" viewBox="0 0 152 45" fill="none" xmlns="http://www.w3.org/2000/svg">
<path d="M56.4622 37.33C54.9442 37.33 53.4592 37.088 52.0072 36.604C50.5552 36.098 49.3232 35.372 48.3112 34.426L50.4562 30.664C51.5342 31.39 52.5682 31.951 53.5582 32.347C54.5702 32.743 55.4942 32.941 56.3302 32.941C57.2102 32.941 57.6502 32.666 57.6502 32.116C57.6502 31.808 57.4742 31.544 57.1222 31.324C56.7922 31.104 56.1322 30.851 55.1422 30.565C53.9102 30.213 52.8762 29.872 52.0402 29.542C51.2262 29.19 50.5552 28.816 50.0272 28.42C49.5212 28.024 49.1582 27.584 48.9382 27.1C48.7182 26.616 48.6082 26.044 48.6082 25.384C48.6082 24.504 48.7842 23.69 49.1362 22.942C49.4882 22.194 49.9722 21.545 50.5882 20.995C51.2262 20.445 51.9742 20.027 52.8322 19.741C53.7122 19.433 54.6692 19.279 55.7032 19.279C56.9792 19.279 58.1892 19.444 59.3332 19.774C60.4992 20.104 61.6652 20.775 62.8312 21.787L60.4552 25.549C59.3772 24.845 58.4752 24.35 57.7492 24.064C57.0232 23.756 56.3412 23.602 55.7032 23.602C55.3292 23.602 55.0212 23.679 54.7792 23.833C54.5372 23.965 54.4162 24.185 54.4162 24.493C54.4162 24.823 54.5922 25.098 54.9442 25.318C55.2962 25.516 55.9892 25.747 57.0232 26.011C58.2772 26.341 59.3332 26.693 60.1912 27.067C61.0492 27.419 61.7312 27.815 62.2372 28.255C62.7652 28.673 63.1392 29.157 63.3592 29.707C63.5792 30.235 63.6892 30.851 63.6892 31.555C63.6892 32.457 63.5242 33.26 63.1942 33.964C62.8642 34.668 62.3802 35.273 61.7422 35.779C61.1262 36.285 60.3672 36.67 59.4652 36.934C58.5852 37.198 57.5842 37.33 56.4622 37.33Z" fill="#199057"/>
<path d="M77.6804 37.33C76.1184 37.33 74.7434 37.088 73.5554 36.604C72.3894 36.098 71.3994 35.438 70.5854 34.624C69.7934 33.788 69.1884 32.831 68.7704 31.753C68.3744 30.653 68.1764 29.509 68.1764 28.321C68.1764 27.133 68.3744 26 68.7704 24.922C69.1884 23.822 69.7934 22.865 70.5854 22.051C71.3994 21.215 72.3894 20.555 73.5554 20.071C74.7434 19.565 76.1184 19.312 77.6804 19.312C79.2204 19.312 80.5844 19.565 81.7724 20.071C82.9604 20.555 83.9504 21.215 84.7424 22.051C85.5564 22.865 86.1614 23.822 86.5574 24.922C86.9754 26 87.1844 27.133 87.1844 28.321C87.1844 29.509 86.9754 30.653 86.5574 31.753C86.1614 32.831 85.5564 33.788 84.7424 34.624C83.9504 35.438 82.9604 36.098 81.7724 36.604C80.5844 37.088 79.2204 37.33 77.6804 37.33ZM74.6114 28.321C74.6114 29.487 74.8974 30.4 75.4694 31.06C76.0414 31.72 76.7784 32.05 77.6804 32.05C78.5824 32.05 79.3194 31.72 79.8914 31.06C80.4634 30.4 80.7494 29.487 80.7494 28.321C80.7494 27.155 80.4634 26.242 79.8914 25.582C79.3194 24.922 78.5824 24.592 77.6804 24.592C76.7784 24.592 76.0414 24.922 75.4694 25.582C74.8974 26.242 74.6114 27.155 74.6114 28.321Z" fill="#199057"/>
<path d="M92.5719 12.91H98.8419V30.103C98.8419 31.423 99.3809 32.083 100.459 32.083C100.723 32.083 101.009 32.039 101.317 31.951C101.625 31.863 101.911 31.742 102.175 31.588L102.967 36.208C102.219 36.56 101.372 36.835 100.426 37.033C99.5019 37.231 98.6219 37.33 97.7859 37.33C96.1139 37.33 94.8269 36.901 93.9249 36.043C93.0229 35.185 92.5719 33.942 92.5719 32.314V12.91Z" fill="#199057"/>
<path d="M107.734 37V19.642H114.004V37H107.734ZM107.734 18.19V12.91H114.004V18.19H107.734Z" fill="#199057"/>
<path d="M120.906 37V13.57H129.915C131.851 13.57 133.556 13.878 135.03 14.494C136.504 15.11 137.736 15.946 138.726 17.002C139.716 18.058 140.464 19.301 140.97 20.731C141.476 22.139 141.729 23.646 141.729 25.252C141.729 27.034 141.443 28.651 140.871 30.103C140.321 31.533 139.529 32.765 138.495 33.799C137.461 34.811 136.218 35.603 134.766 36.175C133.314 36.725 131.697 37 129.915 37H120.906ZM135.195 25.252C135.195 24.35 135.074 23.525 134.832 22.777C134.59 22.029 134.238 21.391 133.776 20.863C133.336 20.335 132.786 19.928 132.126 19.642C131.466 19.334 130.729 19.18 129.915 19.18H127.341V31.39H129.915C130.751 31.39 131.499 31.236 132.159 30.928C132.819 30.62 133.369 30.191 133.809 29.641C134.271 29.091 134.612 28.442 134.832 27.694C135.074 26.946 135.195 26.132 135.195 25.252Z" fill="#199057"/>
<path d="M5.66112 24.484C2.20923 13.8602 10.2953 3.7158 10.2953 3.7158C10.2953 3.7158 22.6617 6.74496 26.2516 17.7937C29.8416 28.8425 21.6175 38.5619 21.6175 38.5619C21.6175 38.5619 9.11301 35.1078 5.66112 24.484Z" fill="#DCB38E"/>
<path d="M17.5164 17.3435C21.1141 6.76815 33.6649 3.4864 33.6649 3.4864C33.6649 3.4864 41.7546 13.318 38.0129 24.3164C34.2713 35.3147 21.8644 38.1735 21.8644 38.1735C21.8644 38.1735 13.9187 27.9188 17.5164 17.3435Z" fill="#94E1AE"/>
<path fill-rule="evenodd" clip-rule="evenodd" d="M21.8022 10.4601C20.0167 12.3018 18.4591 14.5723 17.5163 17.3435C13.9186 27.9189 21.8643 38.1735 21.8643 38.1735C21.8643 38.1735 21.8899 38.1676 21.9389 38.1554C23.4234 36.2067 29.4101 27.5147 26.2515 17.7937C25.2755 14.7898 23.6508 12.3787 21.8022 10.4601Z" fill="#199057"/>
</svg>
