<svg width="24" height="21" viewBox="0 0 24 21" fill="none" xmlns="http://www.w3.org/2000/svg">
<path d="M22.7579 6.76514C22.6323 6.61085 22.4084 6.58986 22.2577 6.71827C22.107 6.84668 22.0865 7.07595 22.2121 7.23043C22.4988 7.58305 22.7387 7.99772 22.9246 8.46264C23.6118 10.1811 23.3232 12.5477 22.1715 14.6385C21.259 16.295 19.978 17.4018 18.7448 17.5992C17.9402 17.7281 17.0093 17.5039 16.0526 16.9507C15.1839 16.4483 14.3395 15.6919 13.6559 14.8076C14.3188 13.16 14.5215 11.4563 14.1814 9.99161C13.9551 9.0166 13.5631 8.23862 13.072 7.61773C13.6092 6.99403 14.3459 6.49856 15.2671 6.14331C16.0383 5.84599 16.7067 5.74007 16.9269 5.7052C17.1714 5.66584 17.821 5.56161 18.6379 5.60341C19.5765 5.65103 20.3983 5.87449 21.0805 6.26779C21.2513 6.36621 21.468 6.30435 21.5641 6.12925C21.6604 5.95435 21.5998 5.73276 21.429 5.63416C20.8088 5.27666 20.0945 5.04289 19.2996 4.93547C20.2551 3.24922 19.4313 1.49023 19.3919 1.40849C19.3159 1.25027 19.1401 1.17097 18.9746 1.2199C17.7278 1.58939 17.0875 2.33157 16.7651 3.07469C16.5933 2.55559 16.3584 1.98607 16.0359 1.40924C15.9385 1.2349 15.7217 1.17453 15.5514 1.27426C15.3811 1.374 15.3222 1.59614 15.4196 1.7703C15.6055 2.10286 15.7598 2.4343 15.8884 2.75393C15.3656 2.33738 14.641 2.04587 13.6383 2.07474C13.4662 2.0798 13.3225 2.21047 13.2972 2.38481C13.2842 2.47498 13.0249 4.40719 14.4376 5.71439C13.6946 6.07395 13.0746 6.53174 12.5868 7.08195C12.3365 6.84106 12.0697 6.63091 11.7926 6.44701C12.8997 5.22229 12.924 3.62771 12.9246 3.55404C12.9257 3.37782 12.8032 3.22616 12.634 3.1941C11.9679 3.06812 11.3493 3.0835 10.7867 3.23797C10.8507 2.33776 10.6464 1.6522 10.636 1.61733C10.5845 1.44898 10.4225 1.34269 10.252 1.365C9.11947 1.51272 8.35958 1.97745 7.84963 2.54416C8.02523 1.92627 8.29622 1.29451 8.71572 0.68431C8.8287 0.520277 8.79024 0.293444 8.62984 0.177778C8.46944 0.0622987 8.24788 0.101667 8.13509 0.265887C7.46566 1.23921 7.13423 2.22959 6.97109 3.20985C6.50453 2.36625 5.65089 1.56821 4.09211 1.365C3.92145 1.34325 3.75959 1.44917 3.70832 1.61733C3.69751 1.6522 3.49335 2.33795 3.55744 3.23797C2.99475 3.08368 2.37604 3.06831 1.71008 3.19429C1.54089 3.22635 1.41839 3.37782 1.41949 3.55404C1.41986 3.62771 1.44439 5.22417 2.55329 6.44907C1.98309 6.83075 1.49695 7.29623 1.10894 7.84081C0.993404 8.00316 1.02801 8.23056 1.1864 8.34885C1.34497 8.46714 1.56708 8.43152 1.68262 8.26936C3.12659 6.24267 5.74171 5.9401 7.17195 5.9401C8.77724 5.9401 12.6062 6.3514 13.4904 10.16C13.9712 12.2309 13.2366 14.8562 11.5731 17.0116C10.2529 18.7223 8.60769 19.7434 7.17195 19.7434C5.73622 19.7434 4.09101 18.7223 2.77082 17.0116C1.10748 14.8562 0.372858 12.2307 0.853694 10.1598C0.894161 9.98505 0.941951 9.81295 0.995785 9.64836C1.05786 9.45789 0.957515 9.25187 0.77148 9.18832C0.585627 9.12458 0.384393 9.2275 0.322137 9.41796C0.261712 9.60299 0.208062 9.79608 0.162652 9.99161C-0.367257 12.2738 0.418634 15.1364 2.21381 17.4623C2.90064 18.3524 3.69715 19.0968 4.51691 19.6148C5.41505 20.1824 6.30842 20.4704 7.17214 20.4704C8.03566 20.4704 8.92904 20.1824 9.82717 19.6148C10.6469 19.0966 11.4435 18.3524 12.1305 17.4623C12.6007 16.8529 13.0011 16.2063 13.3274 15.5432C14.0571 16.4219 14.9391 17.1871 15.9444 17.7146C16.8299 18.1795 17.8551 18.4778 18.8547 18.3175C20.3221 18.0826 21.7565 16.8718 22.79 14.9958C24.0461 12.7157 24.3495 10.1067 23.5817 8.18706C23.3684 7.65354 23.0912 7.17512 22.7579 6.76514V6.76514ZM18.8658 2.02357C19.0416 2.57097 19.2866 3.78874 18.4896 4.87004C17.9635 4.85542 17.5061 4.8946 17.1901 4.93341C17.1835 4.87942 17.1756 4.82055 17.1662 4.75719C17.1423 3.9644 17.3464 2.62421 18.8658 2.02357ZM13.98 2.80586C15.7378 2.90878 16.2905 4.30502 16.46 5.04945C16.148 5.11056 15.6957 5.21667 15.1893 5.39889C14.0987 4.61303 13.9731 3.38194 13.98 2.80586ZM12.1867 3.86092C12.1208 4.3547 11.8983 5.33496 11.1538 6.0762C10.7357 5.86511 10.3062 5.70389 9.8843 5.58166C10.2501 5.13625 10.5085 4.62296 10.6561 4.04782C11.1096 3.86035 11.6225 3.79737 12.1867 3.86092ZM10.0255 2.13942C10.0846 2.47911 10.1418 3.0655 10.0053 3.71038C9.86636 4.3682 9.55654 4.93266 9.0845 5.39082C8.50771 5.28078 7.97139 5.23429 7.53139 5.21911C7.58339 4.36895 7.94411 2.57153 10.0255 2.13942ZM4.31953 2.13942C6.39613 2.56965 6.76106 4.34795 6.81233 5.21911C6.26796 5.23617 5.7472 5.29166 5.2541 5.3852C4.78517 4.92816 4.47736 4.36557 4.33894 3.71019C4.20344 3.07 4.26075 2.48079 4.31953 2.13942ZM2.15741 3.86092C2.72156 3.79737 3.23444 3.86035 3.68818 4.04782C3.83521 4.6209 4.09247 5.13268 4.45631 5.57698C4.00513 5.70877 3.58179 5.87505 3.18958 6.07545C2.44562 5.33402 2.22333 4.35414 2.15741 3.86092Z" fill="black"/>
</svg>
